# xmcd CD database file
#
# Track frame offsets:
#	150
#	26117
#	44392
#	62841
#	84463
#	101843
#	123003
#	141985
#	168904
#	193761
#	212610
#	231694
#
# Disc length: 3330 seconds
#
# Revision: 0
# Processed by: cddbd v1.5.2PL0 Copyright (c) Steve Scherf et al.
# Submitted via: CDex 1.51
#
DISCID=ae0d000c
DTITLE=Magnolia - wait a second
DYEAR=2012
DGENRE=Jazz
TTITLE0=wait a second
TTITLE1=swirling
TTITLE2=catchng butterflies
TTITLE3=not a word
TTITLE4=doralice
TTITLE5=moebious
TTITLE6=right with you
TTITLE7=e preciso perdoar
TTITLE8=broken things
TTITLE9=khilebor
TTITLE10=you belong to you
TTITLE11=wild sky
EXTD=YEAR: 2012
EXTT0=
EXTT1=
EXTT2=
EXTT3=
EXTT4=
EXTT5=
EXTT6=
EXTT7=
EXTT8=
EXTT9=
EXTT10=
EXTT11=
PLAYORDER=
